<svg t="1571217360661" class="icon" viewBox="0 0 1024 1024" version="1.1" xmlns="http://www.w3.org/2000/svg" p-id="2456" width="32" height="32">
	<path d="M472.351385 14.45052L105.850062 316.105133c-20.772623 17.159993-32.694302 42.629035-32.694303 69.362498V933.864879c0 49.673664 40.280826 89.954489 89.95449 89.954489h697.598871c49.673664 0 89.954489-40.280826 89.954489-89.954489V385.648262c0-26.914094-12.102311-52.383136-32.694302-69.362497L551.648615 14.45052c-23.120833-18.785676-56.176398-18.785676-79.29723 0z m355.482801 937.296878H196.165814c-27.997883 0-50.757453-22.75957-50.757453-50.757453V406.96278c0-18.06315 7.947786-35.223143 21.856412-46.78356l321.343447-267.334627c13.366731-11.199153 32.874934-11.199153 46.422297 0l321.343447 267.334627c13.908626 11.560416 21.856412 28.720409 21.856412 46.78356v494.027165c0.361263 27.997883-22.398307 50.757453-50.39619 50.757453z" fill="#ffffff" p-id="2457">
	</path>
	<path d="M512.090316 890.152055c-24.927148 0-45.157876-20.230729-45.157876-45.157876V645.576998c0-24.927148 20.230729-45.157876 45.157876-45.157876s45.157876 20.230729 45.157876 45.157876v199.597812c0 24.746516-20.230729 44.977245-45.157876 44.977245z" fill="#ffffff" p-id="2458">
	</path>
</svg>
