<svg t="1571218405396" class="icon" viewBox="0 0 1024 1024" version="1.1" xmlns="http://www.w3.org/2000/svg" p-id="5100" width="32" height="32">
	<path d="M238.501424 385.003326m49.999739 0l199.998959 0q49.99974 0 49.99974 49.99974l0 0q0 49.99974-49.99974 49.99974l-199.998959 0q-49.99974 0-49.999739-49.99974l0 0q0-49.99974 49.999739-49.99974Z" p-id="5101" fill="#ffffff">
	</path>
	<path d="M238.501424 617.002118m49.999739 0l319.998335 0q49.99974 0 49.999739 49.99974l0 0q0 49.99974-49.999739 49.99974l-319.998335 0q-49.99974 0-49.999739-49.99974l0 0q0-49.99974 49.999739-49.99974Z" p-id="5102" fill="#ffffff">
	</path>
	<path d="M818.518405 1024h-670.996508A94.579508 94.579508 0 0 1 53.002389 929.520492v-736.996164A94.579508 94.579508 0 0 1 147.481897 98.00482h494.997424a49.99974 49.99974 0 0 1 0 99.999479H153.001869v725.996222h659.996564V577.482324a49.99974 49.99974 0 0 1 99.99948 0v351.998168a94.579508 94.579508 0 0 1-94.479508 94.519508z" p-id="5103" fill="#ffffff">
	</path>
	<path d="M705.99899 464.002915a49.99974 49.99974 0 0 1-41.379784-77.999594l245.998719-363.998106a49.99974 49.99974 0 1 1 82.849569 55.999709l-245.99872 363.998105A49.99974 49.99974 0 0 1 705.99899 464.002915z" p-id="5104" fill="#ffffff">
	</path>
</svg>
