<svg t="1571218370311" class="icon" viewBox="0 0 1024 1024" version="1.1" xmlns="http://www.w3.org/2000/svg" p-id="4836" width="32" height="32">
	<path d="M864 140.8c-12.8 0-32 12.8-32 32L832 896c0 32-19.2 64-51.2 64l-108.8 0L262.4 960C224 960 192 928 192 896l0-64C192 800 224 768 256 768l499.2 0c12.8 0 12.8-6.4 12.8-19.2L768 128c0-64-32-128-102.4-128L262.4 0C198.4 0 128 57.6 128 128l0 697.6 0 64L128 896c0 0 0 0 0 6.4 0 6.4 0 6.4 0 12.8 6.4 57.6 64 102.4 115.2 108.8 0 0 6.4 0 6.4 0 0 0 0 0 6.4 0l6.4 0 409.6 0 108.8 0c64 0 115.2-57.6 115.2-128L896 172.8C896 153.6 876.8 140.8 864 140.8zM262.4 64l409.6 0C684.8 64 704 83.2 704 128l0 576L256 704c-25.6 0-64 19.2-64 32L192 128C192 96 230.4 64 262.4 64z" p-id="4837" fill="#ffffff">
	</path>
	<path d="M755.2 832 268.8 832c-12.8 0-25.6 12.8-25.6 32S256 896 268.8 896l480 0c12.8 0 25.6-12.8 25.6-32S768 832 755.2 832z" p-id="4838" fill="#ffffff">
	</path>
</svg>
